<?xml version="1.0" encoding="UTF-8"?>
<svg id="Camada_1" data-name="Camada 1" xmlns="http://www.w3.org/2000/svg" viewBox="0 0 81.56 80.2">
  <defs>
    <style>
      .cls-1 {
        fill: #2b4054;
        fill-rule: evenodd;
      }
    </style>
  </defs>
  <polygon class="cls-1" points="72.04 40.12 72.84 39.52 73.64 38.9 74.38 38.25 75.09 37.57 75.83 36.77 76.55 35.94 77.23 35.08 77.85 34.22 78.41 33.3 78.95 32.38 79.45 31.4 79.87 30.42 80.25 29.44 80.61 28.4 80.87 27.37 81.11 26.33 81.32 25.26 81.44 24.19 81.53 23.1 81.56 22 81.53 20.93 81.44 19.84 81.32 18.77 81.11 17.7 80.87 16.63 80.61 15.63 80.25 14.59 79.87 13.61 79.45 12.63 78.95 11.65 78.41 10.73 77.85 9.81 77.23 8.92 76.55 8.09 75.83 7.26 75.09 6.46 74.29 5.72 73.49 5.01 72.63 4.33 71.74 3.71 70.82 3.14 69.91 2.61 68.96 2.13 67.98 1.69 66.97 1.3 65.96 .98 64.92 .68 63.86 .44 62.82 .27 61.72 .12 60.66 .03 59.56 0 25.91 0 25.91 18.09 23.66 18.09 21.4 18.09 19.15 18.09 16.87 18.09 14.62 18.09 12.36 18.09 10.11 18.09 7.83 18.09 7.83 25.91 11.06 25.91 14.29 25.91 17.52 25.91 20.75 25.91 23.98 25.91 27.24 25.91 30.48 25.91 33.71 25.91 36.94 25.91 40.17 25.91 43.4 25.91 46.63 25.91 49.86 25.91 53.1 25.91 56.33 25.91 59.56 25.91 59.94 25.91 60.33 25.85 60.72 25.74 61.07 25.62 61.43 25.44 61.75 25.26 62.05 25.02 62.32 24.79 62.58 24.49 62.79 24.19 63 23.87 63.15 23.54 63.29 23.19 63.38 22.8 63.44 22.42 63.47 22 63.44 21.61 63.38 21.23 63.29 20.84 63.15 20.49 63 20.16 62.79 19.84 62.58 19.54 62.32 19.24 62.05 19.01 61.75 18.77 61.43 18.56 61.07 18.41 60.72 18.26 60.33 18.18 59.94 18.12 59.56 18.09 33.74 18.09 33.74 7.83 59.56 7.83 60.27 7.86 60.95 7.92 61.63 8.01 62.35 8.12 63 8.27 63.68 8.45 64.33 8.69 64.98 8.92 65.61 9.19 66.23 9.52 66.82 9.87 67.42 10.23 67.98 10.64 68.51 11.06 69.05 11.53 69.55 12.01 70.05 12.51 70.5 13.05 70.94 13.58 71.33 14.17 71.71 14.74 72.04 15.36 72.37 15.95 72.63 16.6 72.9 17.23 73.11 17.88 73.28 18.56 73.46 19.24 73.58 19.92 73.67 20.61 73.7 21.32 73.73 22 73.7 22.71 73.67 23.42 73.58 24.11 73.46 24.79 73.28 25.47 73.11 26.12 72.9 26.8 72.63 27.43 72.37 28.05 72.04 28.67 71.71 29.26 71.33 29.86 70.94 30.42 70.5 30.98 70.05 31.52 69.55 32.02 69.05 32.5 68.51 32.97 67.98 33.39 67.42 33.8 66.82 34.16 66.23 34.51 65.61 34.81 64.98 35.11 64.33 35.34 63.68 35.58 63 35.76 62.35 35.91 61.63 36.02 60.95 36.11 60.27 36.17 59.56 36.2 18.08 36.2 18.08 44 59.56 44 60.27 44.03 60.95 44.09 61.63 44.18 62.35 44.3 63 44.44 63.68 44.62 64.33 44.86 64.98 45.1 65.61 45.39 66.23 45.69 66.82 46.05 67.42 46.4 67.98 46.82 68.51 47.23 69.05 47.71 69.55 48.18 70.05 48.68 70.5 49.22 70.94 49.78 71.33 50.35 71.71 50.94 72.04 51.53 72.37 52.15 72.63 52.78 72.9 53.43 73.11 54.08 73.28 54.73 73.46 55.42 73.58 56.1 73.67 56.78 73.7 57.49 73.73 58.2 73.7 58.88 73.67 59.6 73.58 60.28 73.46 60.96 73.28 61.64 73.11 62.32 72.9 62.98 72.63 63.6 72.37 64.25 72.04 64.84 71.71 65.47 71.33 66.03 70.94 66.62 70.5 67.16 70.05 67.69 69.55 68.19 69.05 68.67 68.51 69.14 67.98 69.56 67.42 69.97 66.82 70.33 66.23 70.68 65.61 71.01 64.98 71.28 64.33 71.51 63.68 71.75 63 71.93 62.35 72.08 61.63 72.2 60.95 72.29 60.27 72.34 59.56 72.37 33.74 72.37 33.74 62.12 59.56 62.12 59.94 62.09 60.33 62.03 60.72 61.94 61.07 61.79 61.43 61.64 61.75 61.43 62.05 61.2 62.32 60.96 62.58 60.69 62.79 60.37 63 60.04 63.15 59.71 63.29 59.36 63.38 58.97 63.44 58.59 63.47 58.2 63.44 57.79 63.38 57.4 63.29 57.02 63.15 56.66 63 56.33 62.79 56.01 62.58 55.71 62.32 55.42 62.05 55.18 61.75 54.94 61.43 54.76 61.07 54.58 60.72 54.47 60.33 54.35 59.94 54.29 59.56 54.29 56.33 54.29 53.1 54.29 49.86 54.29 46.63 54.29 43.4 54.29 40.17 54.29 36.94 54.29 33.71 54.29 30.48 54.29 27.24 54.29 23.98 54.29 20.75 54.29 17.52 54.29 14.29 54.29 11.06 54.29 7.83 54.29 7.83 62.12 10.11 62.12 12.36 62.12 14.62 62.12 16.87 62.12 19.15 62.12 21.4 62.12 23.66 62.12 25.91 62.12 25.91 80.2 59.56 80.2 60.66 80.17 61.72 80.08 62.82 79.94 63.86 79.76 64.92 79.52 65.96 79.22 66.97 78.9 67.98 78.51 68.96 78.07 69.91 77.59 70.82 77.06 71.74 76.5 72.63 75.87 73.49 75.19 74.29 74.48 75.09 73.74 75.83 72.94 76.55 72.11 77.23 71.28 77.85 70.39 78.41 69.47 78.95 68.55 79.45 67.57 79.87 66.59 80.25 65.61 80.61 64.58 80.87 63.57 81.11 62.5 81.32 61.43 81.44 60.37 81.53 59.27 81.56 58.2 81.53 57.11 81.44 56.01 81.32 54.94 81.11 53.87 80.87 52.84 80.61 51.8 80.25 50.76 79.87 49.78 79.45 48.8 78.95 47.82 78.41 46.91 77.85 45.99 77.23 45.13 76.55 44.27 75.83 43.44 75.09 42.64 74.38 41.95 73.64 41.3 72.84 40.68 72.04 40.12 72.04 40.12"/>
  <polygon class="cls-1" points="0 44 7.83 44 7.83 36.17 0 36.17 0 44 0 44"/>
  <polygon class="cls-1" points="7.83 7.83 15.65 7.83 15.65 0 7.83 0 7.83 7.83 7.83 7.83"/>
  <polygon class="cls-1" points="7.83 80.2 15.65 80.2 15.65 72.37 7.83 72.37 7.83 80.2 7.83 80.2"/>
</svg>